<?xml version="1.0" standalone="no"?>
<!DOCTYPE svg PUBLIC "-//W3C//DTD SVG 20010904//EN"
 "http://www.w3.org/TR/2001/REC-SVG-20010904/DTD/svg10.dtd">
<svg version="1.0" xmlns="http://www.w3.org/2000/svg"
 width="1024.000000pt" height="1024.000000pt" viewBox="0 0 1024.000000 1024.000000"
 preserveAspectRatio="xMidYMid meet">
<metadata>
Created by potrace 1.11, written by Peter Selinger 2001-2013
</metadata>
<g transform="translate(0.000000,1024.000000) scale(0.100000,-0.100000)"
fill="#000000" stroke="none">
<path d="M0 5120 l0 -5120 5120 0 5120 0 0 5120 0 5120 -5120 0 -5120 0 0
-5120z m5455 2182 c-6 -5 -29 -23 -52 -41 -52 -40 -98 -130 -113 -221 -6 -42
-10 -615 -10 -1625 0 -1005 -4 -1592 -10 -1650 -34 -290 -138 -592 -280 -810
-175 -268 -421 -466 -710 -569 -75 -27 -262 -76 -290 -76 -8 0 30 25 85 55
436 240 668 646 724 1265 7 74 11 686 11 1725 0 1773 3 1687 -62 1815 -22 42
-48 75 -76 97 l-43 33 373 3 c205 1 393 3 418 5 24 1 40 -2 35 -6z m2400 -637
c448 -48 754 -172 996 -403 210 -200 345 -447 409 -747 31 -145 38 -412 16
-565 -41 -282 -132 -515 -288 -735 -248 -351 -661 -567 -1213 -636 -145 -18
-480 -14 -785 10 -189 15 -354 21 -574 21 l-310 0 51 26 c93 46 154 135 184
269 11 49 14 276 14 1240 0 1112 -1 1184 -18 1244 -35 123 -90 200 -182 252
l-50 29 220 1 c121 1 335 5 475 9 365 11 887 4 1055 -15z m-4005 -2 c0 -5
-314 -322 -697 -706 l-698 -697 640 -639 c539 -538 653 -648 725 -694 111 -72
227 -129 434 -213 l168 -69 -308 -3 c-344 -3 -437 6 -586 56 -135 45 -211 94
-324 206 -56 56 -372 381 -703 723 l-602 622 461 458 c438 434 569 573 618
653 29 49 42 114 31 155 -11 37 -72 97 -126 123 -35 17 -27 17 293 22 606 10
674 10 674 3z m-1920 -33 c-99 -54 -152 -135 -176 -270 -20 -111 -20 -2280 0
-2392 26 -145 89 -241 196 -302 l45 -26 -509 0 -510 0 51 25 c58 29 122 93
153 155 50 99 50 92 50 1326 0 671 -4 1172 -9 1200 -25 133 -96 240 -190 289
l-46 24 500 0 500 1 -55 -30z"/>
<path d="M7115 6493 c-33 -2 -90 -8 -127 -14 -120 -19 -108 108 -108 -1148 0
-1042 5 -1264 31 -1366 20 -79 107 -139 264 -181 100 -27 526 -28 659 -1 125
26 238 63 331 109 404 202 575 547 576 1158 0 342 -71 606 -227 840 -217 327
-587 537 -1039 589 -108 12 -278 19 -360 14z"/>
</g>
</svg>
