<?xml version="1.0" standalone="no"?>
<!DOCTYPE svg PUBLIC "-//W3C//DTD SVG 20010904//EN"
 "http://www.w3.org/TR/2001/REC-SVG-20010904/DTD/svg10.dtd">
<svg version="1.0" xmlns="http://www.w3.org/2000/svg"
 width="512.000000pt" height="512.000000pt" viewBox="0 0 512.000000 512.000000"
 preserveAspectRatio="xMidYMid meet">
<metadata>
Created by potrace 1.11, written by Peter Selinger 2001-2013
</metadata>
<g transform="translate(0.000000,512.000000) scale(0.100000,-0.100000)"
fill="#000000" stroke="none">
<path d="M0 2560 l0 -2560 2560 0 2560 0 0 2560 0 2560 -2560 0 -2560 0 0
-2560z m2260 603 c-1 -219 -1 -424 0 -455 l0 -58 315 0 315 0 0 455 0 455 100
0 100 0 -2 -1002 -3 -1003 -97 -3 -98 -3 0 451 0 450 -315 0 -315 0 -1 -37 c0
-21 -1 -222 -2 -448 l-2 -410 -97 -3 -98 -3 0 1006 0 1005 100 0 100 0 0 -397z
m830 -2068 l0 -95 -515 0 -515 0 0 95 0 95 515 0 515 0 0 -95z"/>
</g>
</svg>
