<svg xmlns="http://www.w3.org/2000/svg" width="198" height="198" viewBox="0 0 198 198">
    <defs>
        <linearGradient id="a" x1="53.433%" x2="-49.037%" y1="6.644%" y2="168.122%">
            <stop offset="0%" stop-color="#EACC3A"/>
            <stop offset="41.141%" stop-color="#E6A243"/>
            <stop offset="100%" stop-color="#EC6749"/>
        </linearGradient>
        <linearGradient id="b" x1="79.153%" x2="40.584%" y1="-50.105%" y2="43.116%">
            <stop offset="0%" stop-color="#E5AE42"/>
            <stop offset="100%" stop-color="#EACC3A"/>
        </linearGradient>
        <linearGradient id="c" x1="100%" x2="-6.716%" y1="-48.808%" y2="108.952%">
            <stop offset="0%" stop-color="#E5AF42"/>
            <stop offset="100%" stop-color="#ED5B39"/>
        </linearGradient>
        <linearGradient id="d" x1="100%" x2="7.525%" y1="0%" y2="93.129%">
            <stop offset="0%" stop-color="#AD3305"/>
            <stop offset="36.194%" stop-color="#E14D2A"/>
            <stop offset="84.587%" stop-color="#DD5132"/>
            <stop offset="100%" stop-color="#D5482A"/>
        </linearGradient>
    </defs>
    <g fill="none" fill-rule="evenodd">
        <path fill="url(#a)" d="M43.704 153.304A8.1 8.1 0 0 1 38 145.562l.034-58.354a8.1 8.1 0 0 1 3.988-6.974l83.34-49.111a8.102 8.102 0 0 1 8.787.362l26.106 13.11-8.67 6.059-14.022 4.52-.024 41.13a8.1 8.1 0 0 1-3.978 6.968l-66.31 39.2 1.84 23.746-25.387-12.914z"/>
        <path fill="url(#b)" d="M40.489 82.717l29.853-.033c-1.609 2.49-2.475 3.833-2.598 4.027-.903 1.422-1.378 2.848-1.423 4.277-.048 1.49.393 3.145 1.323 4.969.098.19.965 1.874 2.604 5.05l-29.763.404a846.577 846.577 0 0 0-2.824-5.542c-.911-1.673-1.328-3.192-1.25-4.558.153-1.864.674-3.444 1.563-4.741.12-.175.958-1.46 2.515-3.853z" transform="rotate(27 53.372 92.048)"/>
        <path fill="url(#c)" d="M153.057 120.824v14.596c0 1.878-1.072 2.441-3.215 1.689l-12.224-7.147-61.11 36.17a8.1 8.1 0 0 1-11.103-2.858 8.126 8.126 0 0 1-1.128-4.14l.067-58.33a8.12 8.12 0 0 1 3.992-6.984l83.325-49.162a8.1 8.1 0 0 1 11.1 2.873 8.126 8.126 0 0 1 1.122 4.13l-.067 58.173a8.12 8.12 0 0 1-3.982 6.98l-6.777 4.01z"/>
        <path fill="url(#d)" d="M81.114 103.02l11.735-6.988v16.62l8.306-5.093v-16.93l11.405-6.662v44.17l-11.405 6.72v-14.31l-7.548 4.235v14.47l-12.493 7.292v-43.525zM118 80.716L130.373 73v44.175L118 124.582V80.717zm17-10L147.373 63v29.558L135 99.71V70.717zm-.011 33.889l12.373-7.454v9.877l-12.373 7.162v-9.585z"/>
    </g>
</svg>
